HIERARCHY
ROOT Hips
{
	OFFSET 0.00000 0.00000 0.00000
	CHANNELS 6 Xposition Yposition Zposition Zrotation Yrotation Xrotation 
	JOINT LHipJoint
	{
		OFFSET 0 0 0
		CHANNELS 3 Zrotation Yrotation Xrotation
		JOINT LeftHip
		{
			OFFSET 1.60223 -1.58443 0.78595
			CHANNELS 3 Zrotation Yrotation Xrotation
			JOINT LeftKnee
			{
				OFFSET 2.21690 -6.09089 0.00000
				CHANNELS 3 Zrotation Yrotation Xrotation
				JOINT LeftAnkle
				{
					OFFSET 2.34805 -6.45122 0.00000
					CHANNELS 3 Zrotation Yrotation Xrotation
					JOINT LeftToe
					{
						OFFSET 0.35452 -0.97402 1.38549
						CHANNELS 3 Zrotation Yrotation Xrotation
						End Site
						{
							OFFSET 0.00000 -0.00000 0.82816
						}
					}
				}
			}
		}
	}
	JOINT RHipJoint
	{
		OFFSET 0 0 0
		CHANNELS 3 Zrotation Yrotation Xrotation
		JOINT RightHip
		{
			OFFSET -1.56524 -1.58443 0.78595
			CHANNELS 3 Zrotation Yrotation Xrotation
			JOINT RightKnee
			{
				OFFSET -2.15558 -5.92241 0.00000
				CHANNELS 3 Zrotation Yrotation Xrotation
				JOINT RightAnkle
				{
					OFFSET -2.35077 -6.45870 0.00000
					CHANNELS 3 Zrotation Yrotation Xrotation
					JOINT RightToe
					{
						OFFSET -0.26910 -0.73935 1.33295
						CHANNELS 3 Zrotation Yrotation Xrotation
						End Site
						{
							OFFSET -0.00000 -0.00000 0.75962
						}
					}
				}
			}
		}
	}
	JOINT lowerback
	{
		OFFSET 0 0 0
		CHANNELS 3 Zrotation Yrotation Xrotation
		JOINT Chest
		{
			OFFSET -0.05489 1.97104 -0.02993
			CHANNELS 3 Zrotation Yrotation Xrotation
			JOINT Chest2
			{
				OFFSET -0.00702 1.94230 0.13626
				CHANNELS 3 Zrotation Yrotation Xrotation
				JOINT lowerneck
				{
					OFFSET 0 0 0
					CHANNELS 3 Zrotation Yrotation Xrotation
					JOINT Neck
					{
						OFFSET -0.07858 1.62869 -0.02510
						CHANNELS 3 Zrotation Yrotation Xrotation
						JOINT Head
						{
							OFFSET 0.13978 1.59213 -0.29859
							CHANNELS 3 Zrotation Yrotation Xrotation
							End Site
							{
								OFFSET 0.05353 1.64420 -0.10000
							}
						}
					}
				}
				JOINT LeftCollar
				{
					OFFSET 0 0 0
					CHANNELS 3 Zrotation Yrotation Xrotation
					JOINT LeftShoulder
					{
						OFFSET 3.48263 1.15278 0.52941
CHANNELS 3 Zrotation Xrotation Yrotation
						JOINT LeftElbow
						{
OFFSET 0 -4.592070 -0.000000
CHANNELS 3 Zrotation Xrotation Yrotation
							JOINT LeftWrist
							{
OFFSET 0 -2.981090 -0.000000
CHANNELS 3 Zrotation Xrotation Yrotation
								JOINT lhand
								{
									OFFSET 0 0 0
CHANNELS 3 Zrotation Xrotation Yrotation
									JOINT LFingers
									{
OFFSET 0 -0.480200 -0.000000
CHANNELS 3 Zrotation Xrotation Yrotation
										End Site
										{
OFFSET 0 -0.387150 -0.000000
										}
									}
								}
								JOINT LThumb
								{
OFFSET 0 0.000000 0.000000
CHANNELS 3 Zrotation Xrotation Yrotation
									End Site
									{
OFFSET 0 -0.393060 0.393060
									}
								}
							}
						}
					}
				}
				JOINT RightCollar
				{
					OFFSET 0 0 0
					CHANNELS 3 Zrotation Yrotation Xrotation
					JOINT RightShoulder
					{
						OFFSET -3.52496 1.12722 0.24548
CHANNELS 3 Zrotation Xrotation Yrotation
						JOINT RightElbow
						{
OFFSET 0 -4.765080 -0.000000
CHANNELS 3 Zrotation Xrotation Yrotation
							JOINT RightWrist
							{
OFFSET 0 -2.789020 -0.000000
CHANNELS 3 Zrotation Xrotation Yrotation
								JOINT rhand
								{
									OFFSET 0 0 0
CHANNELS 3 Zrotation Xrotation Yrotation
									JOINT RFingers
									{
OFFSET 0 -0.721300 -0.000000
CHANNELS 3 Zrotation Xrotation Yrotation
										End Site
										{
OFFSET 0 -0.581530 -0.000000
										}
									}
								}
								JOINT RThumb
								{
OFFSET 0 0.000000 0.000000
CHANNELS 3 Zrotation Xrotation Yrotation
									End Site
									{
OFFSET 0 -0.590410 0.590410
									}
								}
							}
						}
					}
				}
			}
		}
	}
}
MOTION
Frames: 4
Frame Time: 0.008333333333333333
22.414241 16.013326 -2.855798 106.730439 -446.925922 -103.574519 0.000000 0.000000 0.000000 -30.495519 1.377400 -12.973860 4.665627 12.997037 39.357565 0.706627 -3.466903 -15.084270 2.504517 -9.846133 -28.480000 0.000000 0.000000 0.000000 16.067180 8.123431 -28.754969 -5.649905 -14.080235 43.559735 -1.069333 5.163077 -18.506927 -0.647941 5.147356 -14.329824 -9.032270 2.244671 16.835414 0.320507 0.990125 -4.783513 5.206449 1.317850 -15.232162 -10.869216 -1.133846 2.168869 9.025499 -2.244401 7.979537 4.482913 -1.272939 2.213405 0.000000 0.000000 0.000000 72.584875 -36.131090 42.156493 53.967786 -54.475284 29.374074 8.207829 38.938596 -41.752377 0.000000 0.000000 0.000000 -7.125000 0.000000 0.000000 -39.721152 68.072564 23.399046 0.000000 0.000000 0.000000 2.413398 10.071621 33.282035 -52.977511 -54.127810 -28.569987 12.412945 -0.709376 -56.660418 0.000000 0.000000 0.000000 7.125000 0.000000 0.000000 24.147016 -23.394187 33.989584
22.358325 15.929329 -2.894051 92.953413 -443.587098 -89.703633 0.000000 0.000000 0.000000 -33.462137 4.247935 -13.041848 4.394551 12.667607 38.136743 0.616505 -6.267628 -14.029554 2.663211 -10.128882 -29.395092 0.000000 0.000000 0.000000 12.507119 8.707018 -27.953948 -5.271519 -13.683092 41.982675 -0.778978 7.173452 -15.791489 -0.033785 -0.994655 2.734430 -9.890833 1.839618 16.103969 -2.223125 0.000320 -3.879351 3.103951 0.658489 -13.550565 -12.118750 -1.927830 0.812313 11.232828 -3.371762 8.643434 5.347488 -1.784505 2.791466 0.000000 0.000000 0.000000 73.558624 -41.138133 39.364952 48.661846 -52.439253 25.109930 11.013085 30.509998 -38.812256 0.000000 0.000000 0.000000 -7.125000 0.000000 0.000000 -32.166064 66.637405 17.526828 0.000000 0.000000 0.000000 3.411382 6.865529 40.712371 -52.864359 -54.087399 -28.478176 10.574304 -2.472735 -57.012636 0.000000 0.000000 0.000000 7.125000 0.000000 0.000000 23.500057 -23.769481 33.016717
22.253937 15.888053 -2.945985 82.609731 -441.922299 -77.690321 0.000000 0.000000 0.000000 -34.543164 4.418679 -14.767428 4.510196 12.809919 38.661238 0.500376 -8.691195 -13.122070 2.558490 -9.943497 -28.794115 0.000000 0.000000 0.000000 11.303053 8.881279 -27.337431 -4.769750 -13.119425 39.817658 -1.439591 5.327770 -21.562780 -0.002237 -0.261169 0.717561 -8.910987 0.613307 14.400319 -4.508316 -1.584479 -3.894935 0.439858 -0.350330 -12.419962 -12.950106 -2.555309 -0.284645 13.821720 -4.490205 10.160291 6.276744 -2.270310 3.614993 0.000000 0.000000 0.000000 73.815558 -44.566429 35.504321 42.544831 -49.503806 20.355096 1.132535 11.474956 -40.644635 0.000000 0.000000 0.000000 -7.125000 0.000000 0.000000 -44.835100 65.154134 23.998167 0.000000 0.000000 0.000000 4.704803 4.088527 48.061650 -53.074241 -54.162575 -28.648277 12.349964 -0.284971 -57.088442 0.000000 0.000000 0.000000 7.125000 0.000000 0.000000 24.150060 -23.798119 34.064716
22.125654 15.892313 -3.036203 74.659251 -442.974870 -67.583018 0.000000 0.000000 0.000000 -32.817614 -0.179110 -17.046942 5.349191 13.764499 42.306213 0.630246 -7.470233 -14.305049 2.967220 -10.640434 -31.077974 0.000000 0.000000 0.000000 13.133077 11.374413 -25.976392 -4.043433 -12.216959 36.505251 -1.855811 2.757182 -25.046335 -0.005389 -0.474404 1.303535 -6.833565 -0.540630 13.192169 -5.398410 -2.812748 -4.658193 -1.427363 -1.135958 -12.608121 -12.767461 -3.077514 -0.822657 15.085385 -5.518381 11.699652 6.618781 -2.721867 4.326899 0.000000 0.000000 0.000000 72.216193 -45.553605 30.507090 38.552704 -47.186869 17.370433 -16.204527 -14.651242 -47.377311 0.000000 0.000000 0.000000 -7.125000 0.000000 0.000000 -70.819225 63.898461 41.693400 0.000000 0.000000 0.000000 6.027124 2.499266 53.412946 -54.597315 -54.689002 -29.887244 16.201350 3.370802 -56.429734 0.000000 0.000000 0.000000 7.125000 0.000000 0.000000 25.513831 -23.160756 36.180214
